<?xml version="1.0" standalone="no"?>
<!DOCTYPE svg PUBLIC "-//W3C//DTD SVG 20010904//EN"
 "http://www.w3.org/TR/2001/REC-SVG-20010904/DTD/svg10.dtd">
<svg version="1.0" xmlns="http://www.w3.org/2000/svg"
 width="2500.000000pt" height="1778.000000pt" viewBox="0 0 2500.000000 1778.000000"
 preserveAspectRatio="xMidYMid meet">
<metadata>
Created by potrace 1.16, written by Peter Selinger 2001-2019
</metadata>
<g transform="translate(0.000000,1778.000000) scale(0.100000,-0.100000)"
fill="#000000" stroke="none">
<path d="M13999 11785 c-209 -40 -400 -143 -559 -304 -168 -169 -279 -385
-325 -630 -13 -73 -15 -282 -15 -1676 0 -1750 -3 -1670 61 -1859 104 -310 351
-580 635 -695 197 -79 413 -100 567 -54 94 28 133 51 414 247 159 111 330 176
461 176 l52 0 0 1050 0 1050 150 0 150 0 0 40 0 40 -590 0 -590 0 0 -40 0 -40
146 0 145 0 -3 -807 c-4 -792 -4 -810 -27 -932 -51 -276 -134 -477 -247 -599
-82 -89 -144 -122 -229 -122 -83 0 -147 33 -224 115 -99 107 -168 249 -222
462 -61 240 -60 224 -56 2033 3 1633 3 1646 25 1755 77 399 227 639 439 705
117 36 241 19 391 -55 153 -76 296 -231 387 -421 71 -149 112 -312 122 -481
l6 -113 43 0 44 0 0 550 0 550 -45 0 -45 0 0 -37 c0 -82 -38 -159 -99 -200
-52 -35 -70 -30 -131 38 -96 110 -236 198 -382 240 -96 28 -337 35 -449 14z"/>
<path d="M1420 11215 l0 -515 45 0 45 0 0 83 c0 183 53 415 130 574 58 119
144 219 224 261 l51 27 507 3 c412 2 507 0 503 -10 -4 -13 -1561 -4968 -1571
-5000 -5 -17 51 -18 1070 -18 l1076 0 0 515 0 515 -38 0 -39 0 -6 -107 c-21
-364 -142 -667 -312 -789 -27 -19 -65 -39 -84 -44 -22 -6 -234 -10 -529 -10
-465 0 -493 1 -488 18 8 28 1566 4986 1571 5000 3 9 -216 12 -1075 12 l-1080
0 0 -515z"/>
<path d="M5550 11690 l0 -40 145 0 145 0 0 -2475 0 -2475 -145 0 -145 0 0 -40
0 -40 590 0 590 0 0 40 0 40 -150 0 -150 0 0 2475 0 2475 150 0 150 0 0 40 0
40 -590 0 -590 0 0 -40z"/>
<path d="M8760 11690 l0 -40 145 0 145 0 0 -2475 0 -2475 -145 0 -145 0 0 -40
0 -40 1060 0 1060 0 0 515 0 515 -39 0 -38 0 -7 -112 c-22 -337 -121 -608
-276 -751 -93 -87 -94 -87 -517 -87 l-363 0 0 1215 0 1215 230 0 c263 0 272
-2 338 -74 79 -86 137 -247 149 -418 l6 -88 38 0 39 0 0 625 0 625 -38 0 -39
0 -6 -92 c-16 -240 -123 -454 -243 -487 -22 -6 -132 -11 -256 -11 l-218 0 0
1221 0 1220 373 -3 c371 -3 372 -3 422 -27 103 -51 202 -179 266 -346 52 -135
99 -385 99 -530 l0 -45 40 0 40 0 0 515 0 515 -1060 0 -1060 0 0 -40z"/>
<path d="M17490 11690 l0 -40 145 0 145 0 0 -2475 0 -2475 -145 0 -145 0 0
-40 0 -40 1065 0 1065 0 0 515 0 515 -45 0 -45 0 0 -82 c0 -46 -7 -128 -15
-183 -51 -340 -179 -582 -349 -661 -51 -24 -52 -24 -418 -24 l-368 0 0 1215 0
1215 230 0 c210 0 234 -2 270 -20 73 -37 143 -147 180 -282 16 -60 40 -215 40
-265 0 -8 15 -13 40 -13 l40 0 0 625 0 625 -39 0 -39 0 -7 -72 c-19 -217 -76
-371 -169 -456 -24 -22 -61 -45 -82 -51 -22 -6 -131 -11 -251 -11 l-213 0 0
1220 0 1221 368 -3 c433 -4 426 -2 535 -117 138 -146 231 -417 244 -708 l6
-123 43 0 44 0 0 515 0 515 -1065 0 -1065 0 0 -40z"/>
<path d="M21690 11690 l0 -40 145 0 145 0 0 -2475 0 -2475 -145 0 -145 0 0
-40 0 -40 1065 0 1065 0 0 515 0 515 -45 0 -45 0 0 -82 c0 -46 -7 -128 -15
-183 -51 -340 -179 -582 -349 -661 -51 -24 -52 -24 -418 -24 l-368 0 0 2475 0
2475 145 0 145 0 0 40 0 40 -590 0 -590 0 0 -40z"/>
</g>
</svg>
